<svg aria-hidden="true" style="position: absolute; width: 0; height: 0; overflow: hidden;" version="1.1" xmlns="http://www.w3.org/2000/svg" xmlns:xlink="http://www.w3.org/1999/xlink">
<defs>
<symbol id="icon-search" viewBox="0 0 32 32">
<path d="M10.667 30.667c1.473 0 2.667-1.194 2.667-2.667s-1.194-2.667-2.667-2.667v0c-1.473 0-2.667 1.194-2.667 2.667s1.194 2.667 2.667 2.667v0zM25.333 30.667c1.473 0 2.667-1.194 2.667-2.667s-1.194-2.667-2.667-2.667v0c-1.473 0-2.667 1.194-2.667 2.667s1.194 2.667 2.667 2.667v0z"></path>
</symbol>
<symbol id="icon-profile" viewBox="0 0 32 32">
<path d="M16 14.667c3.682 0 6.667-2.985 6.667-6.667s-2.985-6.667-6.667-6.667c-3.682 0-6.667 2.985-6.667 6.667v0c0.005 3.68 2.987 6.662 6.666 6.667h0zM16 4c2.209 0 4 1.791 4 4s-1.791 4-4 4c-2.209 0-4-1.791-4-4v0c0-2.209 1.791-4 4-4v0zM4 29.333v-5.333c0.005-3.68 2.987-6.662 6.666-6.667h10.667c3.68 0.005 6.662 2.987 6.667 6.666v5.334c0 0.736-0.597 1.333-1.333 1.333s-1.333-0.597-1.333-1.333v0-5.333c0-2.209-1.791-4-4-4v0h-10.667c-2.209 0-4 1.791-4 4v0 5.333c0 0.736-0.597 1.333-1.333 1.333s-1.333-0.597-1.333-1.333v0z"></path>
</symbol>
<symbol id="icon-cart" viewBox="0 0 32 32">
<path d="M1.333 1.333h4c0 0 0 0 0 0 0.629 0 1.156 0.436 1.299 1.031l1.004 4.303h20.116c0 0 0.001 0 0.001 0 1.473 0 2.667 1.194 2.667 2.667 0 0.159-0.014 0.314-0.038 0.449l-1.675 9.784-0.005 0.032c-0.441 2.501-2.625 4.401-5.252 4.401-0 0-0 0-0 0l-10.437-0.002c-2.444-0.073-4.474-1.791-5.031-4.12l-3.707-15.879h-2.941c-0.736 0-1.333-0.597-1.333-1.333s0.597-1.333 1.333-1.333zM8.259 9.333l2.319 9.939c0.284 1.19 1.338 2.061 2.596 2.061h10.275c0 0 0.001 0 0.001 0 1.314 0 2.406-0.95 2.626-2.201l0.002-0.016 1.675-9.783h-19.493z"></path>
<path d="M10.667 30.667c1.473 0 2.667-1.194 2.667-2.667s-1.194-2.667-2.667-2.667v0c-1.473 0-2.667 1.194-2.667 2.667s1.194 2.667 2.667 2.667v0zM25.333 30.667c1.473 0 2.667-1.194 2.667-2.667s-1.194-2.667-2.667-2.667v0c-1.473 0-2.667 1.194-2.667 2.667s1.194 2.667 2.667 2.667v0z"></path>
</symbol>
</defs>
</svg>
